<?xml version="1.0" standalone="no"?>
<!DOCTYPE svg PUBLIC "-//W3C//DTD SVG 20010904//EN"
 "http://www.w3.org/TR/2001/REC-SVG-20010904/DTD/svg10.dtd">
<svg version="1.0" xmlns="http://www.w3.org/2000/svg"
 width="513.000000pt" height="513.000000pt" viewBox="0 0 513.000000 513.000000"
 preserveAspectRatio="xMidYMid meet">

<g transform="translate(0.000000,513.000000) scale(0.100000,-0.100000)"
fill="#000000" stroke="none">
<path d="M10 2560 l0 -2560 2560 0 2560 0 0 2560 0 2560 -2560 0 -2560 0 0
-2560z m3405 2027 c-34 -24 -120 -71 -113 -62 12 12 112 73 123 74 5 1 1 -5
-10 -12z m203 -130 c28 -21 52 -44 52 -50 0 -8 -3 -9 -8 -2 -12 17 -179 145
-183 140 -3 -2 -12 9 -21 25 -14 25 -7 21 45 -23 34 -29 86 -69 115 -90z
m-118 38 c0 -5 -5 -3 -10 5 -5 8 -10 20 -10 25 0 6 5 3 10 -5 5 -8 10 -19 10
-25z m-210 20 c0 -4 -140 -89 -190 -115 -57 -29 2 12 90 64 103 60 100 58 100
51z m-164 -137 c4 -6 3 -8 -4 -4 -6 3 -39 -20 -72 -51 -34 -32 -67 -60 -74
-62 -6 -2 -36 -23 -66 -46 -48 -37 -136 -95 -180 -120 -8 -4 3 11 25 35 30 31
35 41 20 37 -138 -36 -162 -39 -193 -23 -39 20 -77 20 -152 -1 -58 -16 -61
-15 -112 6 -29 12 -73 25 -98 28 -25 3 -54 12 -65 19 -19 13 -18 14 6 14 26 0
150 -39 187 -59 15 -8 31 -7 62 4 52 18 147 19 179 1 20 -11 37 -10 109 6 46
10 87 16 90 13 3 -2 12 1 20 7 8 7 20 13 28 14 14 2 115 74 219 155 54 42 60
45 71 27z m-1543 -36 c93 -68 150 -105 142 -92 -5 8 -3 11 6 8 8 -3 14 -10 14
-16 0 -12 13 -26 26 -28 5 -1 13 -2 18 -3 5 0 30 -21 57 -45 58 -54 78 -42 31
18 -29 38 -29 39 -4 17 38 -35 33 -12 -13 61 -22 35 -40 72 -40 82 0 17 -4 16
-32 -10 l-31 -29 28 38 c24 33 49 50 43 30 -4 -12 23 -73 55 -126 16 -26 27
-54 24 -61 -3 -8 4 -22 15 -33 12 -10 34 -35 49 -56 27 -38 97 -83 108 -70 3
3 1 8 -5 10 -6 2 -20 10 -30 18 -17 14 -17 14 9 5 16 -6 48 -25 70 -44 63 -51
86 -60 155 -60 35 0 57 -3 50 -8 -7 -4 -35 -8 -62 -8 -37 0 -47 -3 -39 -11 7
-7 41 -10 92 -8 45 2 81 1 81 -3 0 -5 5 -8 11 -8 6 0 9 6 6 14 -3 8 2 16 14
19 17 5 18 3 7 -10 -11 -14 -10 -15 10 -9 20 7 22 4 22 -26 0 -26 -3 -30 -11
-18 -7 11 -8 1 -4 -35 4 -28 3 -45 -2 -38 -6 9 -19 7 -52 -8 -24 -10 -62 -20
-85 -20 -37 -1 -38 -2 -11 -8 l29 -6 -24 -23 c-20 -19 -32 -22 -60 -17 -19 4
-57 9 -85 11 l-50 4 38 -16 c20 -9 37 -21 37 -26 0 -7 -15 -8 -37 -5 -27 5
-47 17 -70 44 -18 21 -33 33 -33 27 0 -20 -45 -10 -48 11 -5 26 -21 45 -38 45
-12 0 -12 -4 0 -27 23 -45 45 -103 40 -103 -3 0 -16 24 -29 54 -13 30 -28 57
-34 60 -5 4 -8 14 -6 24 3 15 -2 18 -28 14 -42 -6 -56 -18 -78 -67 -10 -22
-19 -34 -19 -27 0 7 9 30 20 51 10 21 16 41 13 45 -3 3 2 8 11 12 19 7 21 24
3 48 -11 15 -17 15 -42 5 -57 -23 -73 -21 -105 13 l-31 33 6 -60 c3 -33 8 -68
11 -77 7 -22 33 -23 63 -2 22 16 23 16 12 -3 -11 -22 -52 -35 -71 -23 -7 4
-19 51 -28 105 l-16 97 -18 -34 -18 -33 2 58 c1 51 -2 61 -30 93 -26 30 -32
45 -33 87 l-2 52 -7 -40 c-5 -23 -6 -2 -3 51 5 72 2 97 -11 122 -9 18 -14 32
-11 32 3 0 29 -17 58 -38z m2112 -155 c5 -31 4 -39 -4 -31 -7 6 -13 54 -15
110 -4 91 -3 93 4 31 5 -38 12 -87 15 -110z m-1637 56 c35 -24 59 -43 54 -43
-10 0 -85 49 -122 81 -34 28 -8 14 68 -38z m792 -13 c-6 -11 -13 -20 -16 -20
-2 0 0 9 6 20 6 11 13 20 16 20 2 0 0 -9 -6 -20z m214 -39 c3 -4 -6 -6 -19 -3
-14 2 -25 6 -25 8 0 8 39 4 44 -5z m-105 -15 c-10 -9 -69 -36 -69 -32 0 7 52
35 64 36 5 0 7 -2 5 -4z m-89 -51 c-7 -8 -17 -15 -23 -15 -6 0 -2 7 9 15 25
19 30 19 14 0z m100 -8 c0 -2 -10 -12 -22 -23 l-23 -19 19 23 c18 21 26 27 26
19z m764 -34 c9 -18 14 -33 12 -33 -6 0 -36 55 -36 66 0 11 5 3 24 -33z m-44
-13 c6 -11 8 -20 6 -20 -3 0 -10 9 -16 20 -6 11 -8 20 -6 20 3 0 10 -9 16 -20z
m-865 -20 c-7 -11 -85 -34 -92 -26 -3 2 17 11 44 19 26 8 49 15 51 16 2 1 0
-3 -3 -9z m-114 -24 c-6 -7 -8 -15 -6 -18 3 -3 -9 -11 -26 -18 -27 -12 -29
-15 -14 -20 22 -8 67 -1 61 9 -3 4 7 8 22 9 25 2 25 1 6 -13 -18 -14 -18 -14
4 -10 12 2 22 0 22 -6 0 -5 -14 -9 -31 -9 -30 0 -64 -22 -52 -34 4 -3 -1 -6
-10 -6 -9 0 -17 -7 -17 -15 0 -9 -9 -15 -25 -15 -14 0 -25 -4 -25 -10 0 -5
-21 -19 -47 -31 -109 -51 -106 -50 -94 -36 6 9 8 36 5 73 l-6 59 33 17 c19 9
58 32 88 49 30 18 51 26 46 18 -6 -10 -3 -10 11 2 34 29 78 33 55 5z m124 -2
c-26 -20 -55 -36 -55 -30 0 5 63 46 70 46 3 -1 -4 -8 -15 -16z m922 -16 c-3
-8 -6 -5 -6 6 -1 11 2 17 5 13 3 -3 4 -12 1 -19z m-2167 -28 c4 0 11 -19 14
-42 4 -24 13 -61 20 -83 10 -29 11 -45 4 -59 -6 -11 -14 -31 -19 -45 -7 -24
-7 -25 -8 -3 -1 12 -5 22 -11 22 -5 0 -19 9 -30 20 -17 17 -21 32 -19 75 1 30
6 55 11 55 4 0 8 17 8 38 0 40 13 66 18 38 2 -9 7 -16 12 -16z m2174 -16 c3
-8 2 -12 -4 -9 -6 3 -10 10 -10 16 0 14 7 11 14 -7z m35 -63 c-2 -6 -10 2 -17
17 -11 25 -11 25 4 10 9 -9 15 -21 13 -27z m-2399 5 c0 -2 -13 -20 -30 -41
-16 -20 -27 -42 -23 -49 3 -6 3 -8 -2 -4 -4 4 -31 -9 -59 -28 -28 -20 -40 -26
-26 -14 50 42 112 105 121 123 9 15 19 23 19 13z m414 -50 c-3 -14 -9 -26 -13
-26 -17 0 -19 14 -4 36 19 30 26 26 17 -10z m873 -12 c-3 -3 -12 -4 -19 -1 -8
3 -5 6 6 6 11 1 17 -2 13 -5z m-243 -73 c-5 -5 -22 -11 -39 -15 -30 -6 -30 -6
5 12 35 18 52 20 34 3z m-744 -28 c0 -24 -31 -43 -46 -29 -10 9 -8 16 8 33 22
24 38 22 38 -4z m-470 4 c0 -2 -19 -21 -42 -42 l-43 -40 40 43 c36 39 45 47
45 39z m1240 -32 c-7 -9 -23 -21 -34 -27 -14 -7 -11 -2 9 18 31 31 48 36 25 9z
m1390 -10 c0 -5 -5 -3 -10 5 -5 8 -10 20 -10 25 0 6 5 3 10 -5 5 -8 10 -19 10
-25z m-2045 -32 c-6 -33 -8 -35 -17 -18 -8 14 -8 20 0 23 7 2 12 13 12 25 0
11 3 18 6 14 4 -3 3 -23 -1 -44z m-575 27 c0 -5 -4 -10 -10 -10 -5 0 -10 5
-10 10 0 6 5 10 10 10 6 0 10 -4 10 -10z m1169 -3 c-31 -23 -105 -67 -113 -67
-6 1 3 8 19 17 17 9 43 26 60 39 16 13 31 21 34 18 2 -2 2 -5 0 -7z m1458 -29
c-3 -8 -6 -5 -6 6 -1 11 2 17 5 13 3 -3 4 -12 1 -19z m-1839 -13 c-3 -3 -9 2
-12 12 -6 14 -5 15 5 6 7 -7 10 -15 7 -18z m1796 -69 c-27 -30 -53 -54 -59
-55 -5 -1 15 24 45 54 70 70 78 71 14 1z m-1551 37 c-7 -2 -19 -2 -25 0 -7 3
-2 5 12 5 14 0 19 -2 13 -5z m1806 -116 c-15 -14 -27 -19 -31 -12 -4 6 4 15
20 22 38 17 38 16 11 -10z m-158 -15 c-55 -44 -91 -65 -91 -53 0 6 -8 11 -18
11 -24 0 -42 20 -41 45 1 17 2 16 8 -5 10 -37 54 -37 116 -1 63 38 69 38 26 3z
m-1870 -61 c-9 -26 -17 -39 -19 -29 -2 9 2 26 8 38 6 11 9 24 6 29 -3 4 1 8 8
8 9 0 9 -11 -3 -46z m156 -23 c-2 -13 -4 -3 -4 22 0 25 2 35 4 23 2 -13 2 -33
0 -45z m1688 -43 c-15 -42 -29 -74 -31 -72 -2 2 9 38 24 79 15 42 29 75 31 73
2 -3 -9 -39 -24 -80z m-2043 16 c-5 -3 -12 -13 -15 -21 -3 -8 -6 0 -6 19 -1
29 1 32 14 21 9 -7 12 -16 7 -19z m132 13 c5 -14 4 -15 -9 -4 -17 14 -19 20
-6 20 5 0 12 -7 15 -16z m262 -79 c-4 -14 -10 -25 -15 -25 -4 0 -3 16 3 35 12
38 22 29 12 -10z m211 -7 c-3 -7 -5 -2 -5 12 0 14 2 19 5 13 2 -7 2 -19 0 -25z
m-387 7 c-7 -9 -15 -13 -19 -10 -3 3 1 10 9 15 21 14 24 12 10 -5z m1753 -110
c-15 -30 -29 -53 -31 -51 -4 5 46 106 53 106 3 0 -7 -25 -22 -55z m-1753 -15
c0 -5 -4 -10 -10 -10 -5 0 -10 5 -10 10 0 6 5 10 10 10 6 0 10 -4 10 -10z
m-180 -40 c0 -5 -4 -10 -10 -10 -5 0 -10 5 -10 10 0 6 5 10 10 10 6 0 10 -4
10 -10z m176 -240 c5 -128 4 -134 -11 -107 -9 16 -14 35 -11 43 3 8 2 13 -3
10 -10 -6 -14 173 -5 210 l7 28 10 -25 c5 -13 11 -85 13 -159z m213 -2 c1 -79
-3 -138 -8 -138 -12 0 -17 16 -32 113 -10 60 -10 80 -1 89 7 7 12 31 12 53 0
23 3 45 7 49 15 15 22 -34 22 -166z m200 17 c0 -44 4 -104 10 -134 11 -53 15
-159 7 -150 -18 17 -50 379 -38 422 10 34 21 -42 21 -138z m180 10 c7 28 17
-48 12 -95 l-6 -55 -12 41 c-7 23 -12 83 -11 135 1 93 1 94 8 29 4 -36 8 -60
9 -55z m-755 89 c3 -9 6 -77 5 -152 -1 -130 -1 -135 -15 -103 -16 35 -20 104
-14 209 4 61 12 77 24 46z m1853 -171 c-2 -21 -4 -4 -4 37 0 41 2 58 4 38 2
-21 2 -55 0 -75z m-1963 27 c5 -58 5 -62 -7 -36 -7 15 -11 46 -9 68 5 52 8 46
16 -32z m1033 48 c-3 -8 -6 -5 -6 6 -1 11 2 17 5 13 3 -3 4 -12 1 -19z m-1143
-98 c3 -52 12 -113 21 -135 22 -61 17 -77 -6 -20 -21 50 -24 64 -35 167 -6 52
0 97 11 87 2 -3 7 -47 9 -99z m1643 -27 c-2 -21 -4 -6 -4 32 0 39 2 55 4 38 2
-18 2 -50 0 -70z m-468 -15 c19 -85 11 -86 -14 -3 -28 94 -29 96 -10 71 7 -10
19 -40 24 -68z m-1262 -40 c-3 -7 -5 -2 -5 12 0 14 2 19 5 13 2 -7 2 -19 0
-25z m10 -40 c-3 -8 -6 -5 -6 6 -1 11 2 17 5 13 3 -3 4 -12 1 -19z m1333 -262
c0 -7 3 -29 7 -47 6 -31 5 -33 -10 -20 -18 15 -24 81 -7 81 6 0 10 -6 10 -14z
m-53 -238 c-2 -18 -4 -6 -4 27 0 33 2 48 4 33 2 -15 2 -42 0 -60z m-127 -4 c0
-47 -4 -73 -10 -69 -18 11 -12 145 7 145 2 0 3 -34 3 -76z m-931 -41 l-2 -78
-7 60 c-6 55 -3 95 6 95 2 0 3 -35 3 -77z m650 -40 c-1 -43 -4 -89 -8 -103 -7
-23 -8 -22 -18 16 -6 25 -7 61 -2 90 4 27 8 55 8 62 1 6 6 12 11 12 6 0 10
-32 9 -77z m166 -40 l5 -48 -14 50 c-18 60 -20 89 -6 63 6 -9 12 -38 15 -65z
m-603 -15 c5 -40 12 -91 14 -113 l5 -40 -18 30 c-11 20 -18 60 -21 120 -5 106
6 107 20 3z m266 10 c1 -29 -2 -66 -7 -83 l-8 -30 -8 28 c-10 38 4 137 19 137
1 0 3 -24 4 -52z m-393 -116 c-10 -10 -14 5 -19 73 l-5 70 14 -69 c8 -38 13
-72 10 -74z m284 29 c11 -7 9 -10 -8 -16 -24 -7 -61 2 -61 16 0 11 50 12 69 0z
m988 -223 c-3 -8 -6 -5 -6 6 -1 11 2 17 5 13 3 -3 4 -12 1 -19z m-280 -363
c-4 -8 -12 -15 -19 -14 -10 0 -10 2 0 6 6 2 12 12 12 21 0 8 3 13 6 9 4 -3 4
-13 1 -22z m3 -66 c0 -9 6 -22 14 -29 8 -6 12 -18 9 -26 -3 -9 2 -14 13 -14
18 -1 18 -2 -1 -16 -14 -11 -16 -18 -7 -21 14 -6 16 -43 2 -43 -5 0 -10 9 -10
19 0 18 -35 39 -46 28 -8 -8 7 -77 17 -77 5 0 9 -27 9 -60 0 -33 4 -60 10 -60
6 0 10 -4 10 -9 0 -5 -18 -12 -40 -16 -22 -4 -50 -15 -64 -26 -13 -10 -29 -19
-35 -19 -7 0 -14 -7 -17 -15 -4 -8 -15 -15 -25 -15 -13 0 -19 -7 -19 -22 0
-19 -2 -20 -10 -8 -8 12 -10 10 -11 -10 -2 -24 -2 -24 -6 -2 -2 12 -9 20 -14
17 -5 -4 -9 3 -9 15 0 13 4 19 11 14 7 -4 9 0 5 12 -3 11 -1 26 5 34 9 13 10
12 5 -2 -7 -22 12 -34 27 -19 9 9 8 11 -6 5 -13 -5 -16 -2 -11 10 3 9 9 14 13
11 4 -2 9 19 10 48 2 48 6 87 14 127 1 9 13 33 25 54 12 20 17 34 11 30 -8 -5
-8 -1 0 14 6 11 18 22 27 26 10 4 14 12 9 24 -5 14 -4 15 6 5 16 -16 33 -17
24 -3 -12 19 3 38 29 36 17 0 26 -7 26 -17z m-656 -10 c-3 -5 -10 -7 -15 -3
-5 3 -7 10 -3 15 3 5 10 7 15 3 5 -3 7 -10 3 -15z m56 -49 c0 -5 -5 -10 -11
-10 -5 0 -7 5 -4 10 3 6 8 10 11 10 2 0 4 -4 4 -10z m-11 -95 c4 -5 4 -21 0
-35 -7 -26 -9 -22 -14 50 -2 25 -1 34 2 20 3 -14 8 -29 12 -35z m8 23 c-3 -8
-6 -5 -6 6 -1 11 2 17 5 13 3 -3 4 -12 1 -19z m643 -48 c0 -5 -4 -10 -10 -10
-5 0 -10 5 -10 10 0 6 5 10 10 10 6 0 10 -4 10 -10z m-630 -35 c-7 -8 -9 -23
-5 -37 7 -21 7 -21 -9 -5 -10 9 -22 17 -27 17 -5 0 -9 5 -9 11 0 8 4 8 13 1
10 -8 16 -6 25 9 7 10 15 19 18 19 4 0 1 -7 -6 -15z m707 -82 c-3 -10 -5 -2
-5 17 0 19 2 27 5 18 2 -10 2 -26 0 -35z m-702 8 c3 -5 2 -12 -3 -15 -5 -3 -9
1 -9 9 0 17 3 19 12 6z m-104 -24 c-10 -9 -11 -8 -5 6 3 10 9 15 12 12 3 -3 0
-11 -7 -18z m126 1 c-3 -8 -6 -5 -6 6 -1 11 2 17 5 13 3 -3 4 -12 1 -19z m13
-54 c0 -23 -1 -24 -16 -10 -8 9 -12 20 -9 26 12 19 25 10 25 -16z m487 -30
c-3 -3 -12 -4 -19 -1 -8 3 -5 6 6 6 11 1 17 -2 13 -5z"/>
<path d="M1910 4127 c0 -8 7 -17 15 -21 8 -3 15 -2 15 3 0 5 -7 14 -15 21 -12
10 -15 10 -15 -3z"/>
<path d="M2751 974 c0 -11 3 -14 6 -6 3 7 2 16 -1 19 -3 4 -6 -2 -5 -13z"/>
</g>
</svg>
